<?xml version="1.0" standalone="no"?>
<!DOCTYPE svg PUBLIC "-//W3C//DTD SVG 20010904//EN"
 "http://www.w3.org/TR/2001/REC-SVG-20010904/DTD/svg10.dtd">
<svg version="1.0" xmlns="http://www.w3.org/2000/svg"
 width="1024.000000pt" height="1024.000000pt" viewBox="0 0 1024.000000 1024.000000"
 preserveAspectRatio="xMidYMid meet">

<g transform="translate(0.000000,1024.000000) scale(0.100000,-0.100000)"
fill="#000000" stroke="none">
<path d="M4940 9304 c-741 -35 -1458 -216 -2089 -527 -354 -174 -586 -357
-737 -583 -65 -98 -97 -168 -126 -277 -23 -88 -27 -176 -18 -462 4 -133 2
-159 -18 -230 -26 -92 -56 -142 -108 -182 -34 -25 -45 -28 -120 -29 -85 -1
-108 -9 -119 -44 -3 -9 -1 -29 5 -44 23 -62 162 -76 265 -27 108 51 176 150
216 318 20 81 21 105 15 320 -7 252 1 327 49 445 71 175 247 362 486 518 118
77 430 231 614 303 340 133 812 257 1190 311 297 43 691 58 950 35 308 -26
617 -123 868 -273 51 -31 105 -56 118 -56 13 0 44 9 68 20 52 24 111 25 222 5
195 -36 341 -99 489 -211 161 -121 266 -251 383 -474 77 -145 144 -318 252
-646 162 -489 222 -609 495 -984 175 -241 233 -423 208 -657 -10 -100 -10
-107 8 -120 31 -23 76 -12 95 22 27 45 41 188 30 287 -21 186 -101 362 -277
609 -225 316 -288 445 -415 851 -83 264 -149 439 -233 613 -120 249 -214 386
-360 521 -246 231 -506 336 -866 350 l-145 6 -139 64 c-249 116 -459 177 -716
208 -129 16 -409 26 -540 20z"/>
<path d="M4817 8502 c-25 -27 -21 -69 17 -181 89 -260 215 -437 572 -801 287
-293 375 -406 484 -625 62 -124 76 -162 119 -335 27 -107 59 -219 70 -247 60
-154 145 -291 295 -478 102 -127 163 -232 192 -330 26 -87 24 -231 -6 -375
-19 -90 -24 -146 -24 -255 0 -127 3 -146 26 -206 32 -82 62 -130 148 -239 155
-196 186 -302 155 -530 -33 -236 -2 -327 176 -516 217 -230 246 -380 131 -670
-42 -106 -72 -227 -72 -291 1 -21 9 -63 20 -93 10 -30 17 -56 16 -58 -2 -1
-49 31 -105 72 -56 41 -153 108 -216 148 l-113 73 5 100 c9 181 -31 287 -193
501 -53 71 -108 153 -122 182 -33 74 -39 175 -17 336 35 262 -5 393 -191 616
-162 194 -199 276 -197 430 1 72 8 106 47 225 64 197 76 255 76 376 0 179 -51
332 -185 559 -167 281 -185 329 -245 651 -6 31 -16 63 -23 72 -20 26 -60 31
-87 9 -30 -24 -29 -79 5 -241 44 -207 80 -292 223 -528 186 -307 221 -509 137
-778 -65 -206 -76 -254 -76 -355 -2 -170 43 -281 182 -446 104 -124 139 -175
175 -249 45 -94 51 -158 29 -335 -35 -285 -7 -385 172 -613 121 -154 163 -250
163 -377 0 -169 -94 -334 -251 -440 -65 -45 -76 -63 -54 -96 24 -37 50 -38
120 -6 80 38 177 134 223 220 l33 62 87 -56 c224 -144 323 -224 502 -404 277
-278 471 -549 661 -922 54 -108 75 -139 94 -144 34 -9 63 4 79 34 12 23 12 32
-5 74 -41 105 -196 377 -306 537 -136 197 -352 455 -465 555 l-58 51 32 11
c21 7 36 20 42 37 8 22 5 34 -22 71 -72 100 -77 167 -26 311 19 55 48 137 64
183 55 155 50 316 -15 449 -39 82 -84 142 -192 261 -137 152 -154 207 -128
419 33 259 -13 400 -208 636 -88 108 -127 212 -127 342 0 35 12 130 26 212 62
348 23 515 -181 779 -247 320 -306 434 -365 705 -78 363 -229 611 -615 1009
-390 403 -489 542 -580 820 -15 47 -32 91 -38 98 -14 18 -71 15 -90 -6z"/>
<path d="M3100 8327 c-33 -17 -64 -74 -99 -182 -87 -269 -70 -562 44 -791 34
-68 70 -118 138 -194 113 -126 151 -179 178 -250 31 -81 22 -180 -29 -340 -53
-165 -65 -234 -60 -328 6 -103 43 -182 133 -282 80 -90 115 -156 115 -223 0
-82 -61 -168 -145 -202 -55 -23 -75 -43 -75 -76 0 -35 32 -59 79 -59 86 0 212
103 250 205 18 48 22 76 19 140 -4 102 -40 180 -131 286 -101 117 -112 145
-111 264 0 88 4 111 33 185 71 188 87 327 52 452 -24 87 -69 162 -156 257
-144 157 -186 225 -227 368 -20 67 -23 100 -22 238 1 175 14 241 73 390 37 91
38 119 9 139 -27 19 -36 19 -68 3z"/>
<path d="M4245 8185 c-30 -29 -32 -70 -9 -206 22 -129 65 -255 130 -378 75
-141 127 -215 301 -423 82 -98 163 -202 182 -233 77 -128 104 -264 82 -428
-15 -111 -15 -268 -1 -332 19 -85 67 -166 173 -292 172 -204 200 -264 201
-423 1 -129 -6 -153 -125 -400 -107 -223 -134 -299 -149 -423 -22 -172 21
-311 149 -482 89 -118 106 -149 126 -219 27 -92 17 -183 -40 -356 -46 -142
-47 -147 -43 -247 l5 -101 66 -134 c78 -157 92 -207 83 -290 -12 -118 -81
-221 -184 -276 -61 -33 -72 -46 -72 -87 0 -25 13 -39 48 -50 35 -10 140 43
198 102 53 53 105 142 124 212 17 66 15 209 -5 277 -9 33 -41 107 -71 165 -85
165 -87 219 -14 427 89 250 60 433 -100 632 -34 41 -79 112 -101 156 -35 70
-42 93 -46 166 -8 122 17 206 136 462 118 254 141 321 148 441 10 158 -41 294
-166 445 -202 244 -221 281 -221 433 0 52 5 119 10 148 16 82 13 265 -5 334
-19 75 -79 195 -134 269 -23 31 -101 127 -173 214 -269 321 -367 525 -393 815
-5 63 -11 80 -28 92 -31 21 -54 19 -82 -10z"/>
<path d="M2635 8105 c-37 -16 -185 -167 -250 -255 -99 -136 -158 -295 -205
-555 -34 -192 -35 -196 -81 -360 -31 -110 -34 -132 -34 -260 0 -126 3 -149 29
-234 47 -154 39 -175 -158 -446 -330 -454 -408 -603 -393 -752 10 -99 69 -169
185 -219 122 -53 143 -66 164 -108 22 -42 21 -56 -3 -212 -10 -67 -10 -90 0
-125 13 -43 60 -98 111 -130 l25 -16 -22 -44 c-60 -123 -50 -195 49 -326 58
-76 68 -121 68 -299 0 -123 4 -164 20 -216 36 -116 109 -202 220 -258 163 -82
367 -82 714 2 156 37 233 36 296 -6 67 -44 116 -149 146 -316 31 -169 59 -242
137 -356 132 -193 143 -216 221 -459 89 -274 96 -299 96 -348 0 -50 -14 -82
-99 -217 -77 -124 -259 -480 -290 -570 -21 -61 -16 -84 24 -102 53 -24 64 -11
172 209 138 282 132 273 190 273 61 0 200 31 283 63 291 112 519 240 1195 672
165 105 332 210 370 232 93 54 296 155 301 150 7 -7 -32 -113 -59 -160 -32
-53 -102 -108 -171 -131 -83 -27 -103 -58 -70 -105 15 -21 23 -23 69 -18 145
15 294 150 345 314 25 81 27 231 5 318 -33 126 -216 395 -268 395 -24 0 -57
-36 -57 -61 0 -27 12 -49 81 -144 62 -86 116 -192 121 -238 3 -26 -2 -30 -68
-56 -152 -59 -418 -217 -1052 -624 -226 -145 -586 -339 -758 -407 -82 -33
-224 -73 -232 -66 -2 3 14 35 36 73 83 141 84 193 8 448 -92 308 -142 423
-254 584 -80 115 -115 197 -137 316 -39 217 -86 330 -167 407 -43 41 -47 49
-32 54 250 86 550 252 707 392 119 106 229 247 297 381 l22 43 30 -28 c63 -61
158 -189 174 -237 31 -94 19 -146 -79 -340 -49 -97 -92 -196 -98 -226 -26
-124 11 -230 113 -327 185 -175 206 -199 222 -254 30 -100 15 -173 -47 -238
-43 -45 -95 -71 -175 -85 -54 -10 -69 -17 -81 -38 -22 -39 -8 -75 34 -89 51
-17 125 -4 205 36 80 40 141 103 178 182 23 49 27 71 27 152 0 82 -4 103 -27
152 -38 82 -67 116 -179 214 -75 65 -105 98 -125 141 -26 53 -27 59 -17 120 9
47 28 94 71 171 90 161 114 224 119 317 10 150 -37 240 -231 443 -216 227
-224 271 -106 577 68 174 85 251 77 339 -12 131 -66 231 -222 411 -179 208
-197 329 -84 580 123 271 149 372 130 494 -13 87 -63 196 -116 259 -82 95
-256 201 -344 210 -43 4 -48 2 -59 -22 -28 -62 -17 -75 118 -142 71 -35 112
-64 161 -113 84 -84 113 -152 113 -261 -1 -88 -11 -121 -105 -325 -37 -82 -75
-179 -83 -215 -28 -119 -18 -240 30 -349 30 -68 30 -76 -6 -152 -46 -99 -71
-210 -77 -344 -7 -152 11 -246 70 -365 58 -116 109 -140 151 -70 l18 31 -41
78 c-70 135 -88 276 -55 435 15 76 57 191 68 191 12 0 147 -170 166 -211 54
-111 49 -214 -17 -374 -118 -288 -127 -398 -44 -557 l41 -77 -40 -81 c-141
-287 -458 -528 -924 -704 -552 -208 -934 -232 -1082 -68 -69 75 -78 110 -85
317 -7 215 -17 252 -100 363 -60 80 -69 118 -40 175 11 22 25 43 30 46 5 4 53
-10 106 -29 54 -19 110 -35 126 -35 39 0 66 40 53 78 -11 32 -54 55 -199 107
-121 43 -171 71 -199 108 -19 26 -19 31 -7 100 26 135 25 206 -1 257 -13 26
-39 55 -62 70 -38 24 -38 25 -13 28 15 2 61 -14 110 -37 97 -47 154 -53 217
-21 83 43 119 132 99 247 -18 104 -66 137 -122 84 -16 -16 -17 -24 -6 -89 10
-63 10 -74 -5 -97 -22 -34 -58 -33 -137 5 -98 45 -157 53 -258 35 -46 -9 -95
-14 -107 -11 -36 9 -68 70 -60 116 18 113 79 219 302 530 299 415 307 437 243
663 -29 102 -31 118 -26 216 4 84 14 137 50 261 24 85 50 196 57 245 26 192
73 358 135 475 l34 65 1 -45 c0 -87 21 -215 48 -295 35 -107 123 -237 210
-312 129 -111 207 -196 236 -258 31 -66 56 -168 56 -232 0 -64 49 -99 95 -69
32 21 39 53 31 132 -19 186 -94 320 -256 458 -153 130 -227 237 -265 384 -41
162 -27 317 45 468 23 51 38 95 34 106 -9 29 -35 38 -69 23z"/>
<path d="M2330 6685 c-67 -21 -87 -35 -100 -66 -14 -34 -6 -65 23 -84 20 -13
31 -12 102 11 65 21 91 25 142 20 136 -14 290 -86 418 -196 74 -65 98 -72 139
-39 41 33 35 65 -26 121 -109 103 -261 189 -401 228 -85 24 -229 26 -297 5z"/>
<path d="M8132 6364 c-25 -17 -28 -53 -11 -119 5 -22 10 -119 9 -215 0 -287
28 -359 240 -600 171 -195 227 -293 250 -437 15 -92 0 -175 -62 -343 -59 -162
-70 -244 -43 -335 42 -145 178 -259 327 -272 75 -7 108 12 108 62 0 39 -15 51
-81 61 -64 10 -122 38 -168 79 -86 78 -93 188 -23 360 63 154 75 210 70 344
-7 181 -59 300 -214 486 -169 205 -196 240 -224 294 -40 80 -54 163 -47 284
10 174 -22 329 -72 356 -26 14 -32 14 -59 -5z"/>
<path d="M2456 6268 c-9 -12 -16 -31 -16 -41 0 -24 43 -65 81 -79 22 -8 28
-15 24 -27 -4 -9 -9 -41 -12 -73 -5 -51 -3 -59 20 -82 33 -33 61 -33 92 -1 20
19 25 34 25 74 l0 50 35 -15 c70 -29 135 -8 135 44 0 41 -8 48 -110 96 -176
81 -245 95 -274 54z"/>
<path d="M8155 5302 c-29 -6 -55 -32 -55 -55 0 -10 13 -36 29 -56 40 -51 86
-136 107 -201 28 -84 24 -201 -11 -340 -54 -215 -38 -389 50 -539 42 -72 82
-121 217 -273 168 -190 213 -283 212 -443 0 -110 -23 -171 -114 -310 -48 -73
-61 -100 -56 -118 6 -26 56 -53 80 -44 25 10 106 119 146 198 57 112 74 178
73 289 -1 202 -58 311 -316 595 -91 101 -140 175 -173 260 -30 78 -26 228 10
380 39 162 39 277 1 390 -30 89 -73 171 -118 222 -35 40 -55 51 -82 45z"/>
<path d="M8108 3809 c-12 -6 -18 -22 -18 -45 0 -28 11 -46 56 -95 102 -111
160 -223 179 -345 10 -65 -13 -160 -65 -274 -81 -177 -98 -273 -65 -372 26
-74 101 -158 175 -196 83 -42 165 -53 197 -26 51 42 34 114 -26 114 -85 0
-181 56 -212 124 -35 76 -22 152 51 310 55 119 71 184 71 291 -1 137 -50 259
-159 396 -94 120 -136 146 -184 118z"/>
<path d="M7755 3136 c-22 -22 -25 -34 -25 -96 0 -50 -8 -94 -26 -148 -25 -75
-51 -117 -169 -267 -65 -82 -85 -136 -85 -224 0 -103 53 -181 159 -235 50 -26
135 -32 165 -13 53 35 41 102 -21 112 -80 12 -112 26 -142 60 -25 29 -31 44
-31 83 0 57 23 99 110 205 l62 76 27 -51 c57 -111 192 -218 275 -218 44 0 76
25 76 59 0 34 -19 52 -85 80 -67 29 -127 91 -162 165 -27 59 -28 66 -28 228 0
179 -2 188 -52 203 -17 4 -29 -1 -48 -19z"/>
</g>
</svg>
